<svg width="119" height="80" viewBox="0 0 95 64" fill="none" xmlns="http://www.w3.org/2000/svg" class="logo--light"><g clip-path="url(#clip0_7897_1034)"><path d="M12.8213 13.662H11.6928V3.72612H12.8213V13.662ZM22.0471 10.9689C22.0471 12.6734 20.6189 13.7824 18.636 13.7824C17.1177 13.7991 15.6523 13.2288 14.5491 12.1919L15.2505 11.3681C15.6963 11.8234 16.2297 12.1848 16.8191 12.4308C17.4084 12.6768 18.0415 12.8025 18.6807 12.8002C20.0196 12.8002 20.9058 12.0905 20.9058 11.1083C20.9058 10.1832 20.4085 9.65721 18.3045 9.20731C16.0092 8.70672 14.9508 7.93998 14.9508 6.33681C14.9508 4.77167 16.3344 3.62474 18.2344 3.62474C19.5171 3.58785 20.7683 4.02341 21.7475 4.84771L21.1099 5.70949C20.3112 5.01714 19.2878 4.63462 18.228 4.63226C16.9528 4.63226 16.0985 5.34196 16.0985 6.23543C16.0985 7.16691 16.6149 7.69285 18.8146 8.13642C21.0142 8.57998 22.0663 9.40374 22.0663 10.9499L22.0471 10.9689ZM32.0954 3.56137C31.4188 3.55615 30.7479 3.68582 30.1225 3.94271C29.4971 4.1996 28.9299 4.5785 28.4543 5.05701C27.9788 5.53552 27.6046 6.10393 27.3539 6.72862C27.1032 7.35332 26.9811 8.02163 26.9948 8.69404V8.72573C26.9969 9.39144 27.1309 10.0502 27.3891 10.6645C27.6474 11.2787 28.0249 11.8364 28.5 12.3056C28.9751 12.7749 29.5386 13.1465 30.1582 13.3994C30.7779 13.6522 31.4416 13.7813 32.1114 13.7792C32.7812 13.7771 33.4441 13.6439 34.0621 13.3872C34.6802 13.1306 35.2413 12.7554 35.7134 12.2832C36.1856 11.811 36.5596 11.251 36.8139 10.6352C37.0683 10.0194 37.1982 9.35975 37.1961 8.69404C37.2125 8.0221 37.0921 7.35379 36.8421 6.72926C36.5921 6.10474 36.2176 5.5369 35.7412 5.05985C35.2647 4.5828 34.6962 4.20639 34.0697 3.95324C33.4432 3.70009 32.7717 3.57541 32.0954 3.58672V3.56137ZM36.0102 8.75107C36.0325 9.2766 35.9479 9.8012 35.7614 10.2935C35.5749 10.7857 35.2904 11.2355 34.9249 11.6159C34.5594 11.9963 34.1204 12.2996 33.6343 12.5074C33.1481 12.7152 32.6247 12.8234 32.0954 12.8255C31.5631 12.8208 31.0371 12.71 30.5486 12.4996C30.0601 12.2892 29.6191 11.9834 29.2517 11.6005C28.8842 11.2176 28.5979 10.7653 28.4095 10.2704C28.2212 9.77555 28.1347 9.24811 28.1552 8.71939C28.132 8.19364 28.216 7.66866 28.4021 7.176C28.5883 6.68335 28.8727 6.23319 29.2384 5.85259C29.6041 5.47199 30.0435 5.16881 30.5301 4.96127C31.0166 4.75374 31.5404 4.64614 32.0699 4.64493C32.602 4.64878 33.1279 4.75884 33.6163 4.96856C34.1048 5.17828 34.5459 5.4834 34.9134 5.8658C35.2809 6.2482 35.5674 6.70009 35.7558 7.19464C35.9442 7.68918 36.0307 8.21631 36.0102 8.74474V8.75107ZM23.8961 3.75147H25.0246V13.662H23.9089L23.8961 3.75147ZM4.85786 13.7317L0.560547 3.72612H1.83571L2.4733 5.20889L5.41256 12.2869L5.6931 12.9649L5.58471 11.875L8.92565 3.72612H10.1371L5.85887 13.7317H4.85786ZM46.3773 3.72612H47.4804V13.662H46.5814L39.5297 4.72731L40.1673 6.1784V13.662H39.026V3.72612H40.0844L46.8428 12.2742L46.3773 11.0576V3.72612Z" fill="currentColor"></path><path d="M77.9899 14.7133H79.061V15.7652H78.0026L77.9899 14.7133ZM80.1066 14.7133H81.165V15.7652H80.1066V14.7133ZM58.3076 2.67373H57.2493V1.63453H58.3076V2.67373ZM84.1936 10.0306C84.6164 10.3243 85.0896 10.5391 85.5899 10.6642C86.1381 10.8009 86.7014 10.869 87.2667 10.867H87.5472L87.9043 10.1256V11.1648C87.9269 11.386 87.8953 11.6094 87.812 11.8158C87.7287 12.0222 87.5963 12.2054 87.4261 12.3498C87.0295 12.6075 86.5602 12.7319 86.0872 12.7046C85.7936 12.707 85.5007 12.6772 85.2137 12.6159C84.9057 12.5353 84.605 12.4293 84.3147 12.2991L83.9895 13.3129C84.3414 13.445 84.7013 13.5551 85.067 13.6424C85.3758 13.7182 85.6926 13.7565 86.0107 13.7565C86.4159 13.7933 86.8245 13.7477 87.2115 13.6224C87.5984 13.4971 87.9556 13.2948 88.2613 13.0278C88.7466 12.4905 88.9987 11.7845 88.9627 11.0634V3.73829H87.2667C86.6602 3.7321 86.0569 3.82633 85.4815 4.0171C84.977 4.18047 84.5077 4.43623 84.0979 4.77116C83.7151 5.08529 83.4077 5.48042 83.1981 5.9277C82.9885 6.37498 82.8821 6.86312 82.8865 7.35651C82.8732 7.909 82.9934 8.45661 83.2372 8.95334C83.465 9.38652 83.7927 9.75999 84.1936 10.0432V10.0306ZM84.1936 6.3173C84.348 6.00644 84.565 5.73039 84.8311 5.50621C85.1079 5.28285 85.4204 5.10721 85.7556 4.98661C86.0872 4.86838 86.4363 4.80627 86.7885 4.80284H88.4972L87.8979 5.10066V9.82779H86.8268C86.4465 9.82956 86.0681 9.77401 85.7046 9.66304C85.3728 9.55658 85.0622 9.39363 84.7865 9.18146C84.5176 8.97534 84.2995 8.71094 84.1489 8.40839C83.9916 8.08012 83.913 7.72006 83.9194 7.35651C83.9153 6.99509 84.0007 6.63821 84.1681 6.3173H84.1936ZM60.3989 2.68641H59.3405V1.63453H60.3989V2.68641ZM91.6405 13.7692C91.3494 13.7688 91.0597 13.7283 90.7798 13.6488L91.0603 12.6413C91.1543 12.6692 91.2502 12.6904 91.3473 12.7046H91.6023C91.772 12.7118 91.9414 12.6837 92.0996 12.6222C92.2277 12.5647 92.333 12.4667 92.3993 12.3434C92.4844 12.1884 92.5385 12.0184 92.5587 11.8428C92.5949 11.5931 92.6119 11.3411 92.6097 11.0888V3.73829H93.6617V11.1015C93.6651 11.4733 93.6331 11.8446 93.566 12.2104C93.5123 12.5112 93.3973 12.798 93.2281 13.0531C93.0697 13.2862 92.8488 13.4705 92.5905 13.5854C92.2891 13.7155 91.9626 13.7782 91.6342 13.7692H91.6405ZM88.9563 2.68641H86.6355V1.82462C86.6194 1.64362 86.6398 1.46124 86.6957 1.28821C86.7515 1.11518 86.8416 0.955 86.9607 0.817101C87.087 0.705649 87.2343 0.620247 87.3941 0.565858C87.5539 0.511468 87.723 0.489174 87.8915 0.500269H88.6248V1.267H87.8979C87.8405 1.25981 87.7822 1.26394 87.7264 1.27917C87.6706 1.29439 87.6184 1.3204 87.5728 1.35571C87.5097 1.44651 87.4804 1.55629 87.4899 1.66621V1.90066H88.9436L88.9563 2.68641ZM57.5425 13.6234H59.7358V12.8377C59.7358 12.8757 59.7805 12.9137 59.806 12.9454C59.9652 13.1778 60.1858 13.362 60.4436 13.4777C60.7463 13.6108 61.0755 13.6736 61.4063 13.6615H81.1714V3.73829H80.113V12.6096H61.4318C61.2621 12.6167 61.0927 12.5887 60.9345 12.5272C60.8058 12.4681 60.6988 12.3707 60.6285 12.2484C60.5457 12.0928 60.4937 11.9229 60.4754 11.7478C60.4392 11.4981 60.4222 11.246 60.4244 10.9937V3.73829H57.5681C56.9157 3.73223 56.2687 3.85631 55.6654 4.1032C55.0621 4.35008 54.5148 4.71474 54.0558 5.1756C53.5969 5.63645 53.2356 6.18414 52.9934 6.78623C52.7513 7.38831 52.6331 8.03257 52.6459 8.68086C52.6304 9.32653 52.7461 9.96866 52.986 10.5689C53.226 11.1691 53.5853 11.715 54.0424 12.1741C54.4995 12.6331 55.0451 12.9958 55.6465 13.2405C56.2479 13.4852 56.8928 13.6068 57.5425 13.5981V13.6234ZM53.7744 8.63017C53.7521 8.12409 53.8329 7.61874 54.0121 7.14451C54.1913 6.67027 54.4651 6.23693 54.8171 5.87054C55.169 5.50416 55.5919 5.21228 56.0603 5.01247C56.5287 4.81265 57.0328 4.70901 57.5425 4.70779H60.0164L59.3788 5.03096V10.9684C59.3773 11.3404 59.4114 11.7117 59.4808 12.0773C59.5167 12.2581 59.5722 12.4344 59.6466 12.6032H57.5808C57.0658 12.6036 56.5561 12.5007 56.0822 12.3005C55.6082 12.1004 55.1798 11.8073 54.8226 11.4386C54.4654 11.07 54.1867 10.6335 54.0033 10.1553C53.8199 9.67704 53.7356 9.16693 53.7553 8.65552L53.7744 8.63017Z" fill="currentColor"></path><path d="M4.48113 63.4163H3.6969L2.19221 61.4392L1.44623 62.1996V63.4163H0.795898V59.2087H1.44623V61.4709L3.60127 59.2087H4.37912L2.63214 61.0083L4.48113 63.4163Z" fill="currentColor"></path><path d="M5.99897 59.2087H5.34863V63.4163H5.99897V59.2087Z" fill="currentColor"></path><path d="M10.9728 59.2087V63.4163H10.4181L7.93153 60.2289V63.4163H7.29395V59.2087H7.91878L10.3352 62.3074V59.2087H10.9728Z" fill="currentColor"></path><path d="M15.9904 61.1164V62.8463C15.4985 63.2591 14.8745 63.4838 14.2307 63.48C13.9397 63.4943 13.6488 63.4482 13.3767 63.3447C13.1046 63.2411 12.8571 63.0823 12.6502 62.8784C12.4432 62.6745 12.2813 62.43 12.1747 62.1604C12.0681 61.8909 12.0192 61.6023 12.031 61.3129C12.0276 61.0262 12.0818 60.7418 12.1904 60.4762C12.2991 60.2106 12.4599 59.9692 12.6636 59.7662C12.8673 59.5632 13.1096 59.4027 13.3766 59.2939C13.6435 59.1852 13.9295 59.1305 14.218 59.1331C14.7991 59.1029 15.3697 59.2957 15.8119 59.6717L15.4039 60.1533C15.0696 59.8616 14.6371 59.7056 14.1924 59.716C13.7899 59.7422 13.4137 59.924 13.1443 60.2224C12.875 60.5209 12.734 60.9123 12.7515 61.3129C12.7363 61.5208 12.7651 61.7296 12.8359 61.9259C12.9067 62.1221 13.0181 62.3015 13.1628 62.4525C13.3075 62.6034 13.4823 62.7227 13.6761 62.8025C13.8699 62.8823 14.0784 62.921 14.2881 62.9161C14.679 62.9211 15.0612 62.8011 15.3784 62.5739V61.6804H14.2562V61.1355L15.9904 61.1164Z" fill="currentColor"></path><path d="M18.7252 59.2089H17.1631V63.4164H18.7252C19.017 63.4389 19.3103 63.4012 19.5867 63.3057C19.8632 63.2102 20.1168 63.0589 20.3316 62.8614C20.5464 62.6638 20.7178 62.4243 20.835 62.1577C20.9522 61.8912 21.0127 61.6035 21.0127 61.3126C21.0127 61.0217 20.9522 60.734 20.835 60.4675C20.7178 60.201 20.5464 59.9614 20.3316 59.7639C20.1168 59.5663 19.8632 59.415 19.5867 59.3195C19.3103 59.224 19.017 59.1863 18.7252 59.2089ZM18.7252 62.8397H17.8134V59.7855H18.7252C19.1327 59.7855 19.5235 59.9464 19.8117 60.2328C20.0999 60.5192 20.2617 60.9076 20.2617 61.3126C20.2617 61.7176 20.0999 62.1061 19.8117 62.3924C19.5235 62.6788 19.1327 62.8397 18.7252 62.8397Z" fill="currentColor"></path><path d="M24.0365 59.1327C23.745 59.124 23.4547 59.1743 23.1832 59.2805C22.9118 59.3867 22.6649 59.5465 22.4574 59.7503C22.25 59.9541 22.0863 60.1977 21.9763 60.4662C21.8664 60.7347 21.8124 61.0226 21.8177 61.3125C21.8152 61.7491 21.9432 62.1767 22.1855 62.541C22.4277 62.9053 22.7734 63.1899 23.1786 63.3588C23.5838 63.5276 24.0303 63.5731 24.4615 63.4895C24.8928 63.4058 25.2893 63.1968 25.6009 62.8889C25.9125 62.581 26.1251 62.1881 26.2117 61.76C26.2984 61.3319 26.2552 60.8879 26.0876 60.4842C25.9201 60.0805 25.6357 59.7354 25.2705 59.4925C24.9054 59.2497 24.4759 59.12 24.0365 59.12V59.1327ZM25.5667 61.3125C25.5753 61.5175 25.5421 61.722 25.4691 61.9139C25.396 62.1058 25.2847 62.281 25.1417 62.429C24.9988 62.577 24.8272 62.6948 24.6372 62.7751C24.4473 62.8555 24.243 62.8968 24.0365 62.8966C23.8295 62.8942 23.625 62.8507 23.4351 62.7688C23.2452 62.6868 23.0736 62.5679 22.9305 62.4192C22.7874 62.2705 22.6756 62.0949 22.6017 61.9027C22.5277 61.7104 22.4932 61.5055 22.5 61.2998C22.4896 61.0943 22.5213 60.8889 22.5932 60.6959C22.665 60.503 22.7755 60.3265 22.918 60.1772C23.0604 60.0279 23.2319 59.9089 23.422 59.8274C23.612 59.7459 23.8168 59.7036 24.0238 59.703C24.2311 59.7054 24.4359 59.7488 24.6261 59.8307C24.8164 59.9126 24.9884 60.0314 25.132 60.18C25.2756 60.3286 25.388 60.5042 25.4626 60.6965C25.5373 60.8887 25.5727 61.0938 25.5667 61.2998V61.3125Z" fill="currentColor"></path><path d="M31.4769 59.2087V63.4163H30.8266V60.1846L29.3856 62.3264L27.9511 60.1973V63.4163H27.3135V59.2087H28.0403L29.3984 61.2998L30.7501 59.2087H31.4769Z" fill="currentColor"></path><path d="M36.909 59.1327C36.6171 59.1241 36.3266 59.1743 36.0548 59.2804C35.783 59.3865 35.5357 59.5463 35.3277 59.75C35.1198 59.9537 34.9555 60.1972 34.8448 60.4657C34.7342 60.7343 34.6794 61.0223 34.6838 61.3125C34.6813 61.7489 34.8091 62.1762 35.0511 62.5404C35.2931 62.9045 35.6384 63.1891 36.0432 63.3582C36.448 63.5272 36.8942 63.573 37.3253 63.4899C37.7564 63.4068 38.1529 63.1984 38.4647 62.8911C38.7766 62.5839 38.9897 62.1916 39.077 61.7639C39.1644 61.3362 39.1221 60.8924 38.9555 60.4886C38.789 60.0848 38.5056 59.7392 38.1413 59.4956C37.777 59.252 37.3481 59.1213 36.909 59.12V59.1327ZM38.4328 61.3125C38.4414 61.5169 38.4084 61.721 38.3357 61.9125C38.2631 62.1039 38.1523 62.2788 38.01 62.4268C37.8678 62.5747 37.6969 62.6925 37.5077 62.7733C37.3185 62.854 37.1149 62.896 36.909 62.8966C36.702 62.8942 36.4975 62.8507 36.3076 62.7688C36.1176 62.6868 35.9461 62.5679 35.803 62.4192C35.6599 62.2705 35.5481 62.0949 35.4741 61.9027C35.4002 61.7104 35.3656 61.5055 35.3724 61.2998C35.3621 61.0943 35.3938 60.8889 35.4656 60.6959C35.5375 60.503 35.648 60.3265 35.7904 60.1772C35.9329 60.0279 36.1044 59.9089 36.2944 59.8274C36.4845 59.7459 36.6892 59.7036 36.8963 59.703C37.1033 59.7054 37.3078 59.7489 37.4977 59.8308C37.6876 59.9128 37.8592 60.0316 38.0023 60.1804C38.1454 60.3291 38.2572 60.5047 38.3311 60.6969C38.4051 60.8892 38.4396 61.0941 38.4328 61.2998V61.3125Z" fill="currentColor"></path><path d="M40.8369 59.7854V61.078H43.0301V61.6547H40.8369V63.4163H40.1865V59.2087H43.3107V59.7854H40.8369Z" fill="currentColor"></path><path d="M49.5074 62.2442C49.5074 62.9919 48.9209 63.5115 48.0091 63.5115C47.3749 63.5156 46.7608 63.2904 46.2812 62.8778L46.6638 62.4216C47.0366 62.7616 47.5223 62.9534 48.0282 62.9602C48.5319 62.9602 48.8571 62.7258 48.8571 62.3266C48.8571 61.9273 48.6212 61.7879 47.8306 61.6105C46.9252 61.3887 46.4279 61.1289 46.4279 60.3432C46.4363 60.1691 46.4807 59.9986 46.5583 59.8423C46.636 59.686 46.7453 59.5474 46.8793 59.435C47.0133 59.3226 47.1693 59.2388 47.3373 59.189C47.5054 59.1393 47.682 59.1244 47.8561 59.1456C48.398 59.1334 48.9274 59.308 49.3544 59.6398L49.0101 60.1277C48.6774 59.8648 48.2682 59.7159 47.8433 59.7032C47.3906 59.7032 47.0782 59.9376 47.0782 60.2862C47.0782 60.6347 47.3078 60.8184 48.1557 61.0212C49.1313 61.2557 49.5074 61.5978 49.5074 62.2442Z" fill="currentColor"></path><path d="M52.5809 59.1775H51.9433L50.0752 63.4167H50.7128L51.1591 62.3712H53.295L53.7349 63.4167H54.4171L52.5809 59.1775ZM51.4205 61.8135L52.2557 59.9125L53.091 61.8135H51.4205Z" fill="currentColor"></path><path d="M58.6576 59.2089V61.6042C58.6918 61.853 58.6694 62.1064 58.5921 62.3455C58.5147 62.5846 58.3843 62.8034 58.2106 62.9859C58.0368 63.1683 57.8241 63.3096 57.5881 63.3995C57.3521 63.4894 57.0988 63.5255 56.8469 63.5051C56.6003 63.5267 56.352 63.4933 56.1201 63.4074C55.8882 63.3215 55.6784 63.1852 55.5062 63.0086C55.3339 62.8319 55.2035 62.6193 55.1244 62.3862C55.0453 62.1531 55.0195 61.9054 55.0489 61.6612V59.2279H55.6865V61.6295C55.6865 62.4469 56.1073 62.8968 56.8469 62.8968C57.5865 62.8968 57.9945 62.4343 57.9945 61.6295V59.1962L58.6576 59.2089Z" fill="currentColor"></path><path d="M61.4498 59.2089H59.8877V63.4164H61.4498C61.7416 63.4389 62.0349 63.4012 62.3113 63.3057C62.5878 63.2102 62.8414 63.0589 63.0562 62.8614C63.271 62.6638 63.4424 62.4243 63.5596 62.1577C63.6768 61.8912 63.7373 61.6035 63.7373 61.3126C63.7373 61.0217 63.6768 60.734 63.5596 60.4675C63.4424 60.201 63.271 59.9614 63.0562 59.7639C62.8414 59.5663 62.5878 59.415 62.3113 59.3195C62.0349 59.224 61.7416 59.1863 61.4498 59.2089ZM61.4498 62.8397H60.5317V59.7855H61.4498C61.8573 59.7855 62.2481 59.9464 62.5363 60.2328C62.8245 60.5192 62.9864 60.9076 62.9864 61.3126C62.9864 61.7176 62.8245 62.1061 62.5363 62.3924C62.2481 62.6788 61.8573 62.8397 61.4498 62.8397Z" fill="currentColor"></path><path d="M65.4414 59.2087H64.791V63.4163H65.4414V59.2087Z" fill="currentColor"></path><path d="M71.1541 59.1775H70.5166L68.6484 63.4167H69.286L69.7323 62.3712H71.8682L72.3082 63.4167H72.9904L71.1541 59.1775ZM69.9937 61.8135L70.829 59.9125L71.6642 61.8135H69.9937Z" fill="currentColor"></path><path d="M76.2547 61.8072H76.3312C76.6201 61.7441 76.8779 61.5832 77.0605 61.352C77.2431 61.1208 77.3391 60.8337 77.3322 60.5399C77.3427 60.2045 77.2189 59.8786 76.988 59.6338C76.6522 59.3429 76.2148 59.1949 75.7702 59.2219H73.8574V63.4294H74.495V61.9086H75.5279L76.5799 63.3914H77.345L76.2547 61.8072ZM74.5396 61.351V59.7858H75.7064C76.344 59.7858 76.6692 60.0647 76.6692 60.5589C76.6692 61.0532 76.293 61.351 75.7128 61.351H74.5396Z" fill="currentColor"></path><path d="M80.6737 59.1775H80.0361L78.168 63.4167H78.8056L79.2519 62.3712H81.3878L81.8277 63.4167H82.5099L80.6737 59.1775ZM79.5069 61.8135L80.3421 59.9125L81.1837 61.8135H79.5069Z" fill="currentColor"></path><path d="M86.0735 61.2814L85.9396 61.2371L86.0607 61.1737C86.241 61.0993 86.3942 60.9722 86.5001 60.8092C86.606 60.6462 86.6596 60.4551 86.6537 60.2612C86.6581 60.1336 86.636 60.0064 86.5888 59.8876C86.5417 59.7687 86.4704 59.6608 86.3795 59.5705C86.0748 59.3135 85.6817 59.1841 85.2829 59.2094H83.3701V63.4169H85.3275C86.303 63.4169 86.8832 62.9923 86.8832 62.289C86.8888 62.0513 86.8091 61.8195 86.6584 61.6349C86.5077 61.4503 86.2959 61.325 86.0607 61.2814H86.0735ZM84.0077 59.767H85.1681C85.6846 59.767 85.9906 59.9951 85.9906 60.4006C85.9906 60.8062 85.6718 61.0343 85.1107 61.0343H84.0077V59.767ZM85.3339 62.8592H84.0077V61.5919H85.2829C86.1117 61.5919 86.2329 61.9911 86.2329 62.2256C86.2329 62.6565 85.9077 62.8592 85.3339 62.8592Z" fill="currentColor"></path><path d="M88.6298 59.2087H87.9795V63.4163H88.6298V59.2087Z" fill="currentColor"></path><path d="M91.9974 59.1775H91.3598L89.498 63.4167H90.1356L90.582 62.3712H92.7179L93.1578 63.4167H93.84L91.9974 59.1775ZM90.837 61.8135L91.6722 59.9125L92.5138 61.8135H90.837Z" fill="currentColor"></path><path d="M67.8641 49.7363H67.2266V50.3699H67.8641V49.7363ZM60.2131 55.1731H60.8507V49.7363H60.2131V55.1731ZM7.01313 51.0606H6.37554V54.5648H3.95273V51.0606H3.01548C2.66522 51.0562 2.31652 51.1076 1.98259 51.2127C1.69419 51.3058 1.42599 51.4519 1.19199 51.6436C0.979308 51.8171 0.805553 52.033 0.68192 52.2773C0.562085 52.5332 0.501101 52.8124 0.503397 53.0947C0.496483 53.4148 0.566424 53.7319 0.707424 54.0198C0.840638 54.2689 1.02794 54.4853 1.25575 54.6535C1.49743 54.8259 1.77014 54.9507 2.0591 55.021C2.37082 55.1052 2.69244 55.1479 3.01548 55.1478H7.01313V51.0606ZM3.37252 54.5648H2.7732C2.55701 54.5659 2.34194 54.5339 2.13561 54.4697C1.94404 54.4056 1.76503 54.3091 1.60642 54.1846C1.45839 54.0589 1.33887 53.9034 1.25575 53.7283C1.16199 53.5306 1.11822 53.3131 1.12823 53.0947C1.12534 52.8877 1.1735 52.6832 1.2685 52.499C1.35854 52.3213 1.48442 52.1638 1.6383 52.0365C1.79435 51.9066 1.97399 51.8077 2.16749 51.745C2.37183 51.6715 2.58777 51.635 2.80507 51.6373H3.4044L3.37252 54.5648ZM5.32353 56.5101H5.96112V55.8765H5.32353V56.5101ZM3.97185 49.7363H3.33427V50.3699H3.97185V49.7363ZM41.1876 49.7363H40.55V50.3699H41.1876V49.7363ZM6.37554 56.5101H7.01313V55.8765H6.37554V56.5101ZM42.2524 49.7363H41.6148V50.3699H42.2524V49.7363ZM66.7994 49.7363H66.1618V50.3699H66.7994V49.7363ZM2.90709 49.7363H2.2695V50.3699H2.90709V49.7363ZM44.2863 56.5101H44.9239V55.8765H44.2863V56.5101ZM48.1947 51.0606H47.5571V54.5648H45.2682V51.0606H44.6306V54.5648H42.2078V51.0606H41.2514C40.899 51.0563 40.5483 51.1077 40.2121 51.2127C39.9243 51.3071 39.6563 51.4532 39.4215 51.6436C39.2107 51.8173 39.0391 52.0332 38.9178 52.2773C38.798 52.5332 38.737 52.8124 38.7393 53.0947C38.7291 53.4151 38.7992 53.733 38.9433 54.0198C39.0741 54.2705 39.2619 54.4874 39.4917 54.6535C39.731 54.8259 40.0016 54.9507 40.2886 55.021C40.6024 55.1057 40.9262 55.1483 41.2514 55.1478H48.1947V51.0606ZM41.6467 54.5648H41.041C40.8249 54.5651 40.6099 54.533 40.4034 54.4697C40.2144 54.4042 40.0377 54.3078 39.8806 54.1846C39.7307 54.0591 39.609 53.9036 39.5235 53.7283C39.433 53.5295 39.3894 53.3128 39.396 53.0947C39.3931 52.8877 39.4413 52.6832 39.5363 52.499C39.6306 52.3223 39.7584 52.1652 39.9125 52.0365C40.0685 51.9066 40.2481 51.8077 40.4417 51.745C40.646 51.6713 40.8619 51.6348 41.0792 51.6373H41.6849L41.6467 54.5648ZM45.351 56.5101H45.9886V55.8765H45.351V56.5101ZM10.9215 51.5929C10.7687 51.4233 10.5819 51.2874 10.3732 51.1937C10.1409 51.0987 9.89107 51.0534 9.63997 51.0606H9.19367V51.6943H9.72286C9.86853 51.6941 10.0124 51.7266 10.1437 51.7893C10.2694 51.8463 10.3805 51.9308 10.4688 52.0365C10.5542 52.1376 10.6153 52.2568 10.6474 52.385C10.6828 52.5345 10.7 52.6876 10.6984 52.8412V54.5965H7.86111V55.2301H11.3296V52.7842C11.3278 52.5695 11.2957 52.3562 11.2339 52.1505C11.1738 51.9569 11.074 51.7778 10.9406 51.6246L10.9215 51.5929ZM57.8541 54.5965H55.2655L56.3302 52.0618C56.1661 51.9188 55.9937 51.7855 55.8138 51.6626C55.6334 51.5404 55.4437 51.4323 55.2464 51.3394C55.0592 51.2453 54.8626 51.1709 54.6598 51.1177C54.4686 51.0655 54.2715 51.0378 54.0732 51.0353C53.8728 51.0377 53.6736 51.0654 53.4802 51.1177C53.2874 51.171 53.0997 51.2409 52.9192 51.3268C52.7197 51.418 52.5296 51.5284 52.3517 51.6563C52.1756 51.7788 52.0074 51.9121 51.848 52.0555L52.9192 54.5901H50.6239V51.0606H49.9863V55.2998C49.9942 55.4455 49.9942 55.5914 49.9863 55.7371C49.972 55.8371 49.9396 55.9337 49.8906 56.0222C49.8498 56.0904 49.79 56.1454 49.7185 56.1806C49.6271 56.2161 49.5296 56.2333 49.4316 56.2313H49.2849L49.1192 56.1933L48.9598 56.7763C49.122 56.819 49.2892 56.8403 49.4571 56.8396C49.6451 56.8465 49.8324 56.8118 50.0054 56.7382C50.155 56.6583 50.2804 56.5402 50.3688 56.3961C50.4639 56.2496 50.5289 56.086 50.5601 55.9145C50.5998 55.7056 50.619 55.4934 50.6175 55.2808V55.1541H58.4598V49.7363H57.8222L57.8541 54.5965ZM53.5376 54.5965L52.5812 52.2709C52.7948 52.0873 53.0385 51.9415 53.3017 51.84C53.5491 51.7513 53.8102 51.7063 54.0732 51.707C54.353 51.7068 54.6301 51.7606 54.8893 51.8654C55.1393 51.9628 55.3718 52.0998 55.5779 52.2709L54.6215 54.5965H53.5376ZM47.5762 56.5418H48.2138V55.9081H47.5762V56.5418ZM93.0105 55.2048H93.648V49.7363H93.0105V55.2048ZM90.6259 54.5711H88.5346C88.6625 54.2905 88.7277 53.9857 88.7259 53.6777C88.7279 53.3777 88.6694 53.0803 88.5537 52.8032C88.4427 52.543 88.2826 52.3064 88.0819 52.1062C87.8821 51.9047 87.6436 51.7453 87.3806 51.6373C87.1018 51.5223 86.8026 51.4642 86.5007 51.4662C86.2063 51.4626 85.9147 51.5231 85.6464 51.6436C85.3876 51.7526 85.1535 51.9121 84.9578 52.1125C84.7008 52.3771 84.5134 52.7005 84.4122 53.0542C84.311 53.4079 84.2991 53.7809 84.3776 54.1402C84.4077 54.2879 84.4526 54.4323 84.5115 54.5711H82.5987C82.7236 54.2895 82.7887 53.9854 82.79 53.6777C82.7889 53.378 82.7305 53.0812 82.6178 52.8032C82.5068 52.543 82.3467 52.3064 82.146 52.1062C81.9462 51.9047 81.7077 51.7453 81.4447 51.6373C81.1658 51.5223 80.8667 51.4642 80.5648 51.4662C80.2704 51.4626 79.9788 51.5231 79.7104 51.6436C79.4517 51.7526 79.2176 51.9121 79.0219 52.1125C78.7649 52.3771 78.5775 52.7005 78.4763 53.0542C78.3751 53.4079 78.3632 53.7809 78.4417 54.1402C78.4718 54.2879 78.5167 54.4323 78.5755 54.5711H76.6628V49.7363H76.0252V54.5648H74.1125V53.6396C74.1125 53.4149 74.0825 53.1912 74.0232 52.9743C73.9667 52.7786 73.8689 52.5972 73.7363 52.442C73.5897 52.2728 73.4066 52.1385 73.2007 52.0491C72.962 51.9532 72.7057 51.9079 72.4484 51.9161H69.7514L70.899 49.7363H70.2615L69.0883 51.9097C69.1032 52.0278 69.1354 52.1431 69.1839 52.2519C69.229 52.3513 69.2892 52.4432 69.3625 52.5244H72.4739C72.6439 52.5215 72.8128 52.5517 72.9712 52.6131C73.101 52.6633 73.2169 52.7437 73.3091 52.8476C73.3957 52.9479 73.4569 53.0674 73.4876 53.1961C73.5167 53.3422 73.5317 53.4907 73.5323 53.6396V54.5648H67.896V51.0606H66.9333C66.583 51.0558 66.2342 51.1072 65.9004 51.2127C65.6106 51.3071 65.3405 51.4531 65.1034 51.6436C64.8943 51.819 64.723 52.0345 64.5997 52.2773C64.4799 52.5332 64.4189 52.8124 64.4212 53.0947C64.4143 53.4148 64.4842 53.7319 64.6252 54.0198C64.7584 54.2689 64.9457 54.4853 65.1735 54.6535C65.4135 54.8248 65.6839 54.9495 65.9705 55.021C66.2843 55.1057 66.6081 55.1483 66.9333 55.1478H79.0474C79.2469 55.3604 79.4876 55.5306 79.7551 55.6483C80.0339 55.7716 80.3361 55.8343 80.6413 55.8321C80.9522 55.8357 81.2605 55.7753 81.5467 55.6547C81.8243 55.539 82.0742 55.3662 82.2799 55.1478H84.9578C85.1573 55.3604 85.398 55.5306 85.6655 55.6483C85.9441 55.7724 86.2464 55.8351 86.5517 55.8321C86.8646 55.8352 87.1748 55.7748 87.4635 55.6547C87.7383 55.5372 87.9857 55.3646 88.1903 55.1478H91.289V49.7363H90.6514L90.6259 54.5711ZM67.2584 54.5711H66.6591C66.4429 54.5723 66.2279 54.5402 66.0215 54.4761C65.83 54.4119 65.6509 54.3155 65.4923 54.1909C65.3443 54.0652 65.2248 53.9097 65.1417 53.7347C65.0516 53.5466 65.0048 53.341 65.0048 53.1327C65.0048 52.9244 65.0516 52.7188 65.1417 52.5307C65.236 52.354 65.3637 52.1969 65.5178 52.0681C65.6739 51.9383 65.8535 51.8394 66.047 51.7767C66.2514 51.7032 66.4673 51.6667 66.6846 51.6689H67.2839L67.2584 54.5711ZM82.0759 54.305C81.9959 54.493 81.8789 54.6633 81.7316 54.8056C81.5865 54.9495 81.4128 55.0617 81.2215 55.1351C81.0184 55.2138 80.8019 55.2525 80.5839 55.2491C80.3653 55.2538 80.1481 55.2128 79.9464 55.1287C79.7601 55.0507 79.5927 54.934 79.4554 54.7866C79.31 54.6396 79.1956 54.4653 79.1189 54.2737C79.0423 54.0822 79.0049 53.8774 79.0091 53.6713C79.0067 53.4548 79.0456 53.2398 79.1239 53.0377C79.2008 52.8507 79.311 52.679 79.449 52.5307C79.5898 52.3873 79.7563 52.2712 79.94 52.1885C80.1413 52.1027 80.3585 52.0595 80.5776 52.0618C80.796 52.0596 81.0127 52.1006 81.2151 52.1822C81.4036 52.261 81.5763 52.3725 81.7252 52.5117C81.8685 52.6584 81.9831 52.8303 82.0631 53.0186C82.1428 53.2205 82.1839 53.4354 82.1843 53.6523C82.1851 53.8699 82.1418 54.0854 82.0568 54.286L82.0759 54.305ZM87.9672 54.286C87.8872 54.474 87.7701 54.6442 87.6229 54.7866C87.4778 54.9305 87.304 55.0427 87.1128 55.1161C86.9097 55.1948 86.6932 55.2335 86.4752 55.2301C86.2566 55.2348 86.0393 55.1938 85.8376 55.1097C85.6523 55.03 85.4852 54.9136 85.3467 54.7676C85.2013 54.6206 85.0869 54.4463 85.0102 54.2547C84.9336 54.0632 84.8962 53.8584 84.9004 53.6523C84.8979 53.4358 84.9369 53.2207 85.0151 53.0186C85.0945 52.8329 85.2044 52.6616 85.3403 52.5117C85.4811 52.3683 85.6476 52.2522 85.8313 52.1695C86.0326 52.0837 86.2498 52.0405 86.4688 52.0428C86.6873 52.0406 86.904 52.0815 87.1064 52.1632C87.2948 52.2419 87.4676 52.3535 87.6165 52.4927C87.7598 52.6394 87.8744 52.8113 87.9544 52.9996C88.1183 53.4064 88.1183 53.8602 87.9544 54.267L87.9672 54.286ZM32.0893 54.5331H31.1266C30.8381 54.5462 30.5503 54.4942 30.2849 54.381C30.0825 54.2809 29.9156 54.1217 29.8068 53.9248C29.8428 53.739 29.8599 53.55 29.8578 53.3608V51.4408H29.2521V53.4876C29.2672 53.7925 29.1646 54.0917 28.9651 54.324C28.8554 54.4348 28.7227 54.5206 28.5763 54.5753C28.4298 54.63 28.2732 54.6524 28.1172 54.6408C27.9498 54.644 27.7833 54.616 27.6262 54.5584C27.4862 54.5053 27.3567 54.4281 27.2437 54.3303C27.1415 54.2339 27.0573 54.1202 26.995 53.9945C26.9322 53.8659 26.8974 53.7255 26.893 53.5826V51.4408H26.2554V53.5382C26.2609 53.6986 26.2327 53.8583 26.1725 54.0072C26.1217 54.1253 26.0459 54.2312 25.9502 54.3176C25.8544 54.404 25.7411 54.4689 25.6178 54.5078C25.4917 54.5457 25.3607 54.5649 25.2289 54.5648H24.0812V51.4408H23.4437V54.5648H20.2557L21.3269 52.0301C21.1611 51.8907 20.989 51.7577 20.8041 51.6309C20.625 51.5101 20.4375 51.4021 20.243 51.3078C20.0558 51.2136 19.8592 51.1392 19.6564 51.086C19.271 50.9763 18.8623 50.9763 18.4769 51.086C18.2734 51.1409 18.0751 51.213 17.8839 51.3014C17.6865 51.3927 17.4986 51.5031 17.3229 51.6309C17.1435 51.7518 16.9731 51.8852 16.8128 52.0301L17.8903 54.5648H15.7927V51.0606H14.8172C14.4664 51.0557 14.1172 51.1092 13.7843 51.219C13.4961 51.3156 13.2282 51.4638 12.9937 51.6563C12.7764 51.8268 12.6 52.0433 12.4772 52.2899C12.3543 52.5473 12.2911 52.8288 12.2923 53.1137C12.2847 53.4339 12.3546 53.7512 12.4963 54.0388C12.6264 54.29 12.8142 54.5072 13.0447 54.6725C13.2867 54.843 13.5594 54.9656 13.848 55.0337C14.1649 55.113 14.4904 55.1535 14.8172 55.1541H15.1806V55.3252C15.193 55.4527 15.1746 55.5813 15.1269 55.7004C15.0792 55.8194 15.0036 55.9254 14.9064 56.0095C14.6777 56.1574 14.4073 56.2285 14.1349 56.2123C13.9653 56.2143 13.7961 56.1952 13.6313 56.1553C13.4542 56.1112 13.2814 56.0518 13.1148 55.9778L12.9299 56.5608C13.1594 56.6432 13.3698 56.7066 13.5675 56.7509C13.7449 56.7938 13.9269 56.8151 14.1094 56.8143C14.3393 56.8327 14.5706 56.8052 14.7896 56.7333C15.0086 56.6615 15.2109 56.5468 15.3846 56.3961C15.5252 56.2436 15.6338 56.0647 15.7038 55.8699C15.7739 55.6751 15.8041 55.4684 15.7927 55.2618V55.1541H25.2608C25.5343 55.1589 25.8044 55.0934 26.045 54.964C26.2714 54.8438 26.4642 54.6696 26.6061 54.4571C26.7511 54.6952 26.9582 54.8901 27.2054 55.021C27.4871 55.1643 27.8009 55.234 28.1172 55.2238C28.4376 55.2349 28.7562 55.172 29.048 55.04C29.3026 54.9127 29.5101 54.7086 29.641 54.4571C29.6941 54.5474 29.756 54.6323 29.8259 54.7105C29.9064 54.802 30.0038 54.8773 30.1128 54.9323C30.2449 55.0044 30.3866 55.0577 30.5336 55.0907C30.6781 55.1223 30.8255 55.1393 30.9735 55.1414H32.7333V49.7363H32.0957L32.0893 54.5331ZM15.1487 54.5331H14.5111C14.295 54.5339 14.08 54.5018 13.8735 54.4381C13.6807 54.3799 13.501 54.2852 13.3443 54.1592C13.1951 54.0381 13.0735 53.8869 12.9873 53.7157C12.8968 53.5169 12.8531 53.3001 12.8598 53.082C12.8569 52.8751 12.905 52.6706 13 52.4864C13.0923 52.3064 13.2203 52.1469 13.3762 52.0175C13.5351 51.8901 13.7138 51.7895 13.9054 51.7196C14.1101 51.6483 14.3261 51.6139 14.543 51.6182H15.1806L15.1487 54.5331ZM18.5088 54.5331L17.5588 52.2076C17.7704 52.0213 18.0146 51.8752 18.2792 51.7767C18.5265 51.6875 18.7877 51.6424 19.0507 51.6436C19.3304 51.644 19.6075 51.6978 19.8668 51.802C20.1149 51.8995 20.3453 52.0364 20.549 52.2076L19.599 54.5331H18.5088ZM34.4484 55.1668H35.0859V49.7363H34.4484V55.1668Z" fill="currentColor"></path><path d="M81.8523 19.01C74.3798 19.01 68.9539 24.6116 68.9539 31.4488V31.5185C68.9539 38.3558 74.316 43.8876 81.7821 43.8876C89.2482 43.8876 94.6741 38.286 94.6741 31.4488V31.3791C94.6741 24.5419 89.3184 19.01 81.8523 19.01ZM89.108 31.5185C89.108 35.6373 86.1368 39.0084 81.8523 39.0084C77.5677 39.0084 74.5201 35.574 74.5201 31.4488V31.3791C74.5201 27.254 77.4976 23.8892 81.7821 23.8892C86.0667 23.8892 89.108 27.3237 89.108 31.4488V31.5185ZM9.18682 38.907H18.4127V43.4758H0.50293V39.2872L8.56199 32.7225C11.565 30.2449 12.7445 28.9205 12.7445 26.9498C12.7445 24.9791 11.3929 23.8195 9.49286 23.8195C7.59286 23.8195 6.3432 24.8524 4.55159 27.0512L0.815346 24.0793C3.19991 20.8476 5.51434 19.0987 9.83716 19.0987C14.8486 19.0987 18.1704 22.0199 18.1704 26.5189V26.5886C18.1704 30.606 16.0982 32.6021 11.7945 35.8971L6.52172 39.9209L5.49521 40.7066L9.18682 38.907ZM67.5831 35.9478V36.0175C67.5831 40.5546 64.2613 43.8876 58.8674 43.8876C54.5127 43.8876 51.5033 42.1704 49.4311 39.7308L53.0972 36.2583C54.7549 38.115 56.4828 39.1478 58.9375 39.1478C60.9459 39.1478 62.3613 38.0136 62.3613 36.2266V36.1569C62.3613 34.1989 60.5952 33.0963 57.6241 33.0963H55.4117L54.5828 29.7316L62.3486 21.9692L59.2372 23.9589H50.8466V19.4219H67.2006V23.4076L61.0798 29.212C64.3952 29.7823 67.5831 31.4805 67.5831 35.9478Z" fill="currentColor"></path><path d="M41.6395 32.5701C41.376 32.4182 41.0957 32.297 40.8043 32.2089C40.059 31.9732 39.2684 31.9146 38.4962 32.0378C38.1548 32.0917 37.8195 32.1787 37.4952 32.2977H37.3932C37.2147 32.3674 37.0425 32.4434 36.864 32.5321C36.6855 32.6208 36.5643 32.6905 36.4113 32.7856C36.0734 32.9883 35.7355 33.2228 35.4039 33.4699C35.1456 31.6984 35.1113 29.9018 35.3019 28.1218C36.0989 28.6224 35.8757 30.0228 35.71 30.422C36.0392 30.0428 36.2448 29.5732 36.2995 29.0753C36.3541 28.5774 36.2553 28.0747 36.016 27.6339C36.1478 27.7434 36.2675 27.8666 36.373 28.0014C36.6377 28.3437 36.7951 28.7558 36.8257 29.1864C36.8417 29.3656 36.8417 29.5458 36.8257 29.725C36.8289 29.765 36.8289 29.8053 36.8257 29.8454C36.9919 29.5227 37.0786 29.1655 37.0786 28.803C37.0786 28.4405 36.9919 28.0833 36.8257 27.7606C36.7096 27.5269 36.5568 27.313 36.373 27.127L36.1945 26.9559L36.3667 27.0066C36.5286 27.0615 36.6813 27.1405 36.8194 27.241C37.1076 27.4566 37.3286 27.7487 37.4569 28.0838C37.5605 28.3375 37.6146 28.6084 37.6163 28.8822C37.7035 28.623 37.7344 28.3483 37.707 28.0763C37.6795 27.8043 37.5943 27.5412 37.4569 27.3044C37.2983 27.0457 37.0797 26.8284 36.8194 26.6707C36.6783 26.5832 36.526 26.515 36.3667 26.4679C36.2956 26.4465 36.2232 26.4295 36.1499 26.4173H36.3603C36.5121 26.4157 36.6636 26.4284 36.813 26.4553C37.0405 26.4925 37.2577 26.5767 37.4506 26.7024C37.6236 26.8184 37.7676 26.9723 37.8714 27.1523C37.8418 26.8263 37.6864 26.5243 37.4378 26.3095C37.2527 26.1538 37.0348 26.0412 36.8002 25.98C36.6529 25.9378 36.5008 25.9144 36.3475 25.9103C36.1556 25.9066 35.9648 25.9411 35.7865 26.0117C35.9262 25.8174 36.1287 25.6765 36.3603 25.6125C36.5065 25.5666 36.6599 25.5473 36.813 25.5555C36.9406 25.5625 37.066 25.5925 37.1828 25.6442C37.0759 25.522 36.9487 25.4192 36.8066 25.34C36.5504 25.1925 36.2462 25.1503 35.9592 25.2225C35.6721 25.2947 35.4248 25.4756 35.27 25.7266C35.2127 25.6284 35.1616 25.5269 35.117 25.4224C35.002 25.1611 34.9206 24.8865 34.8747 24.605C34.8288 24.8893 34.7452 25.1663 34.6261 25.4287C34.5836 25.531 34.5346 25.6305 34.4794 25.7266C34.3787 25.5688 34.2411 25.4375 34.0784 25.344C33.9156 25.2504 33.7325 25.1973 33.5447 25.1892C33.3568 25.1811 33.1698 25.2183 32.9995 25.2975C32.8292 25.3767 32.6807 25.4956 32.5667 25.6442C32.8067 25.5446 33.0731 25.5266 33.3245 25.593C33.5759 25.6595 33.7981 25.8067 33.9566 26.0117C33.6473 25.9016 33.3121 25.885 32.9932 25.9639C32.6744 26.0428 32.3862 26.2138 32.165 26.4553C32.0005 26.6534 31.9004 26.8964 31.8781 27.1523C31.9483 27.0248 32.0412 26.911 32.1522 26.8165C32.3512 26.6543 32.5825 26.536 32.8309 26.4694C33.0793 26.4027 33.3392 26.3893 33.5932 26.4299C33.2745 26.4853 32.9751 26.6202 32.7231 26.8219C32.4711 27.0236 32.2747 27.2855 32.1522 27.5832C32.0186 27.9952 32.0186 28.4385 32.1522 28.8505V28.8125C32.1454 28.3914 32.2794 27.98 32.5333 27.6428C32.7872 27.3056 33.1465 27.0618 33.5549 26.9495C33.1313 27.2811 32.8363 27.7483 32.7201 28.2716C32.6039 28.7949 32.6736 29.342 32.9173 29.82C32.8636 29.4147 32.9157 29.0024 33.0687 28.6229C33.2217 28.2433 33.4704 27.9093 33.7908 27.6529C33.5515 28.0937 33.4527 28.5964 33.5073 29.0943C33.562 29.5922 33.7676 30.0619 34.0969 30.441C33.9311 30.0418 33.7079 28.6414 34.5049 28.1408C34.7017 29.9241 34.676 31.7246 34.4284 33.5016C33.8205 33.0149 33.1466 32.616 32.4264 32.3167L32.1777 32.2343C31.5749 32.0309 30.9393 31.9407 30.3032 31.9681C29.6389 31.9998 28.9881 32.1658 28.3905 32.4561L28.1992 32.5574C28.1992 32.5574 28.1992 32.5955 28.1992 32.5574L28.3714 32.5068C28.9925 32.331 29.6402 32.2666 30.2841 32.3167C30.9339 32.3758 31.5683 32.5473 32.1586 32.8236C32.9813 33.2125 33.7453 33.7137 34.4284 34.3127C33.723 34.992 32.9756 35.6269 32.1905 36.2137C32.1696 36.2321 32.146 36.2471 32.1204 36.258C32.0616 36.1779 31.981 36.116 31.8881 36.0799C31.7951 36.0438 31.6937 36.0349 31.5958 36.0542C31.4979 36.0735 31.4077 36.1203 31.3357 36.189C31.2636 36.2577 31.2129 36.3454 31.1895 36.4418C31.17 36.5185 31.1691 36.5987 31.1869 36.6758C31.2046 36.7529 31.2405 36.8247 31.2915 36.8854C31.4051 37.0038 31.5552 37.0812 31.718 37.1053C31.8808 37.1295 32.0471 37.0989 32.1905 37.0184C32.8281 36.746 33.6633 35.8778 34.6643 34.9654L34.9194 34.7373L35.1744 34.9654C35.6271 35.3773 36.0479 35.7828 36.4496 36.125C36.6089 36.2707 36.7556 36.3974 36.9022 36.5178C37.0987 36.6836 37.3125 36.8281 37.5398 36.9487C37.683 37.0592 37.8591 37.1192 38.0403 37.1192C38.2216 37.1192 38.3977 37.0592 38.5408 36.9487L38.5855 36.9044C38.6315 36.841 38.6643 36.7691 38.6818 36.6929C38.6993 36.6167 38.7013 36.5378 38.6875 36.4608C38.6632 36.3626 38.6125 36.2728 38.5408 36.201C38.4861 36.1511 38.4213 36.1131 38.3508 36.0897C38.2803 36.0663 38.2056 36.0579 38.1316 36.0651C38.0576 36.0722 37.986 36.0948 37.9214 36.1313C37.8568 36.1679 37.8006 36.2175 37.7566 36.2771L37.4952 36.1186C37.2722 35.963 37.0593 35.7937 36.8576 35.6117L36.4049 35.2125L35.3975 34.3064C35.7163 34.0402 36.0351 33.7868 36.4049 33.546L36.8576 33.2608C37.0616 33.1404 37.272 33.0264 37.4952 32.925C37.8178 32.7711 38.1526 32.6439 38.4962 32.5448C39.246 32.33 40.0345 32.2845 40.8043 32.4117C41.0832 32.4524 41.3583 32.516 41.6267 32.6018" fill="currentColor"></path><path d="M34.9054 44.6795L33.3906 46.185L34.9054 47.6905L36.4203 46.185L34.9054 44.6795Z" fill="currentColor"></path><path d="M22.718 36.0512L22.168 37.7325L23.8597 38.2791L24.4097 36.5978L22.718 36.0512Z" fill="currentColor"></path><path d="M27.6298 21.3155L27.3994 22.7612L28.8541 22.9902L29.0845 21.5445L27.6298 21.3155Z" fill="currentColor"></path><path d="M46.2494 30.2375L45.208 31.2725L46.2494 32.3076L47.2909 31.2725L46.2494 30.2375Z" fill="currentColor"></path><path d="M45.3794 26.8144L44.7109 28.1188L46.0233 28.7831L46.6918 27.4787L45.3794 26.8144Z" fill="currentColor"></path><path d="M28.8531 39.5648L27.3984 39.7938L27.6288 41.2395L29.0835 41.0105L28.8531 39.5648Z" fill="currentColor"></path><path d="M42.191 21.316L40.7363 21.545L40.9667 22.9907L42.4214 22.7617L42.191 21.316Z" fill="currentColor"></path><path d="M31.7274 41.0145L30.415 41.6788L31.0835 42.9831L32.3959 42.3188L31.7274 41.0145Z" fill="currentColor"></path><path d="M34.9077 18.965L33.8662 20L34.9077 21.035L35.9491 20L34.9077 18.965Z" fill="currentColor"></path><path d="M33.2335 20.7459L32.5176 21.725L33.5027 22.4365L34.2186 21.4575L33.2335 20.7459Z" fill="currentColor"></path><path d="M36.3224 40.1159L35.6064 41.095L36.5915 41.8065L37.3075 40.8275L36.3224 40.1159Z" fill="currentColor"></path><path d="M26.5108 26.0649L25.3525 26.4387L25.7287 27.5898L26.8869 27.216L26.5108 26.0649Z" fill="currentColor"></path><path d="M44.0967 34.9649L42.9385 35.3387L43.3146 36.4899L44.4728 36.1161L44.0967 34.9649Z" fill="currentColor"></path><path d="M25.0324 31.961L24.3164 32.94L25.3015 33.6516L26.0175 32.6725L25.0324 31.961Z" fill="currentColor"></path><path d="M49.6432 34.4497L47.7344 35.4163L48.7069 37.3133L50.6157 36.3467L49.6432 34.4497Z" fill="currentColor"></path><path d="M26.9841 42.1157L24.8682 42.4487L25.2033 44.5516L27.3192 44.2186L26.9841 42.1157Z" fill="currentColor"></path><path d="M44.6159 17.9932L42.5 18.3262L42.8351 20.4291L44.951 20.0961L44.6159 17.9932Z" fill="currentColor"></path><path d="M21.8334 32.0745L20.7881 33.505L22.2274 34.5439L23.2727 33.1135L21.8334 32.0745Z" fill="currentColor"></path><path d="M31.0844 19.5719L30.416 20.8762L31.7284 21.5405L32.3968 20.2362L31.0844 19.5719Z" fill="currentColor"></path><path d="M24.4442 26.8044L23.1318 27.4688L23.8003 28.7731L25.1127 28.1088L24.4442 26.8044Z" fill="currentColor"></path><path d="M34.9116 41.5137L33.8701 42.5488L34.9116 43.5838L35.953 42.5488L34.9116 41.5137Z" fill="currentColor"></path><path d="M43.3117 26.0589L42.9355 27.21L44.0938 27.5838L44.4699 26.4327L43.3117 26.0589Z" fill="currentColor"></path><path d="M28.5449 37.6013H27.3271V38.8116H28.5449V37.6013Z" fill="currentColor"></path><path d="M21.107 25.2346L19.1982 26.2012L20.1708 28.0983L22.0796 27.1317L21.107 25.2346Z" fill="currentColor"></path><path d="M20.1698 34.4542L19.1973 36.3513L21.1061 37.3179L22.0786 35.4208L20.1698 34.4542Z" fill="currentColor"></path><path d="M28.4149 18.6099L27.8652 20.2913L29.557 20.8376L30.1067 19.1562L28.4149 18.6099Z" fill="currentColor"></path><path d="M40.2655 41.7199L39.7158 43.4012L41.4076 43.9476L41.9573 42.2662L40.2655 41.7199Z" fill="currentColor"></path><path d="M47.1068 36.0512L45.415 36.5975L45.9647 38.2789L47.6565 37.7325L47.1068 36.0512Z" fill="currentColor"></path><path d="M47.994 32.0711L46.5547 33.11L47.6 34.5404L49.0393 33.5015L47.994 32.0711Z" fill="currentColor"></path><path d="M45.9647 24.2773L45.415 25.9587L47.1068 26.5051L47.6565 24.8237L45.9647 24.2773Z" fill="currentColor"></path><path d="M45.0249 21.2275H43.2461V22.9954H45.0249V21.2275Z" fill="currentColor"></path><path d="M29.5698 41.6207L27.8799 42.1688L28.4313 43.8483L30.1212 43.3002L29.5698 41.6207Z" fill="currentColor"></path><path d="M36.9167 42.9318L35.8672 44.3638L37.3081 45.4068L38.3576 43.9748L36.9167 42.9318Z" fill="currentColor"></path><path d="M23.8003 33.7732L23.1318 35.0775L24.4442 35.7418L25.1127 34.4375L23.8003 33.7732Z" fill="currentColor"></path><path d="M28.5449 23.7363H27.3271V24.9466H28.5449V23.7363Z" fill="currentColor"></path><path d="M25.2995 28.8934L24.3145 29.605L25.0304 30.584L26.0155 29.8724L25.2995 28.8934Z" fill="currentColor"></path><path d="M39.7823 21.7774L38.624 22.1512L39.0001 23.3024L40.1584 22.9286L39.7823 21.7774Z" fill="currentColor"></path><path d="M36.5886 20.746L35.6035 21.4575L36.3195 22.4365L37.3046 21.725L36.5886 20.746Z" fill="currentColor"></path><path d="M42.2723 35.713L41.2773 35.87L41.4353 36.8588L42.4302 36.7018L42.2723 35.713Z" fill="currentColor"></path><path d="M43.4877 30.5696L42.7754 31.2775L43.4877 31.9855L44.2 31.2775L43.4877 30.5696Z" fill="currentColor"></path><path d="M48.705 25.2355L47.7324 27.1325L49.6412 28.0991L50.6138 26.202L48.705 25.2355Z" fill="currentColor"></path><path d="M45.0249 39.5587H43.2461V41.3266H45.0249V39.5587Z" fill="currentColor"></path><path d="M23.8578 24.2812L22.166 24.8275L22.7157 26.5089L24.4075 25.9626L23.8578 24.2812Z" fill="currentColor"></path><path d="M41.4018 18.6124L39.71 19.1588L40.2597 20.8401L41.9515 20.2938L41.4018 18.6124Z" fill="currentColor"></path><path d="M32.7956 17.2567L31.7461 18.6887L33.187 19.7318L34.2365 18.2998L32.7956 17.2567Z" fill="currentColor"></path><path d="M46.0214 33.772L44.709 34.4363L45.3774 35.7406L46.6898 35.0763L46.0214 33.772Z" fill="currentColor"></path><path d="M23.5659 30.2362L22.5244 31.2712L23.5659 32.3063L24.6073 31.2712L23.5659 30.2362Z" fill="currentColor"></path><path d="M44.7868 31.9659L43.8018 32.6775L44.5177 33.6565L45.5028 32.945L44.7868 31.9659Z" fill="currentColor"></path><path d="M30.8184 39.2474L29.6602 39.6212L30.0363 40.7723L31.1945 40.3985L30.8184 39.2474Z" fill="currentColor"></path><path d="M34.9086 39.0983L34.1963 39.8063L34.9086 40.5142L35.6209 39.8063L34.9086 39.0983Z" fill="currentColor"></path><path d="M29.4502 23.8136L29.293 24.8025L30.288 24.9588L30.4452 23.9698L29.4502 23.8136Z" fill="currentColor"></path><path d="M26.5309 33.2368L26.0732 34.1287L26.9707 34.5836L27.4283 33.6917L26.5309 33.2368Z" fill="currentColor"></path><path d="M26.5748 21.2275H24.7959V22.9954H26.5748V21.2275Z" fill="currentColor"></path><path d="M37.1444 17.2348L35.7051 18.2737L36.7504 19.7042L38.1897 18.6653L37.1444 17.2348Z" fill="currentColor"></path><path d="M38.0952 41.0219L37.4268 42.3262L38.7392 42.9905L39.4076 41.6862L38.0952 41.0219Z" fill="currentColor"></path><path d="M25.1161 37.068L24.8857 38.5137L26.3404 38.7427L26.5708 37.297L25.1161 37.068Z" fill="currentColor"></path><path d="M43.4804 23.808L43.25 25.2537L44.7047 25.4827L44.9351 24.037L43.4804 23.808Z" fill="currentColor"></path><path d="M42.4951 37.6013H41.2773V38.8116H42.4951V37.6013Z" fill="currentColor"></path><path d="M44.5177 28.8972L43.8018 29.8762L44.7868 30.5878L45.5028 29.6088L44.5177 28.8972Z" fill="currentColor"></path><path d="M33.5029 40.1225L32.5176 40.8337L33.2332 41.813L34.2185 41.1018L33.5029 40.1225Z" fill="currentColor"></path><path d="M32.0348 22.5018L31.5771 23.3937L32.4746 23.8486L32.9322 22.9567L32.0348 22.5018Z" fill="currentColor"></path><path d="M37.3375 38.7131L36.8799 39.605L37.7773 40.0598L38.235 39.1679L37.3375 38.7131Z" fill="currentColor"></path><path d="M39.5322 37.6023L39.375 38.5912L40.37 38.7475L40.5273 37.7586L39.5322 37.6023Z" fill="currentColor"></path><path d="M26.9736 27.9689L26.0762 28.4238L26.5338 29.3157L27.4313 28.8608L26.9736 27.9689Z" fill="currentColor"></path><path d="M43.288 33.2389L42.3906 33.6937L42.8483 34.5856L43.7457 34.1308L43.288 33.2389Z" fill="currentColor"></path><path d="M27.5527 35.7123L27.3955 36.7012L28.3905 36.8575L28.5478 35.8686L27.5527 35.7123Z" fill="currentColor"></path><path d="M40.373 23.8062L39.3779 23.9625L39.5352 24.9514L40.5302 24.7952L40.373 23.8062Z" fill="currentColor"></path><path d="M32.4804 38.7064L31.583 39.1613L32.0407 40.0532L32.9381 39.5983L32.4804 38.7064Z" fill="currentColor"></path><path d="M25.1984 17.9996L24.8633 20.1025L26.9792 20.4355L27.3143 18.3326L25.1984 17.9996Z" fill="currentColor"></path><path d="M42.8332 42.1271L42.498 44.23L44.614 44.563L44.9491 42.4602L42.8332 42.1271Z" fill="currentColor"></path><path d="M34.9045 14.857L33.3896 16.3625L34.9045 17.868L36.4193 16.3625L34.9045 14.857Z" fill="currentColor"></path><path d="M22.2215 28.0124L20.7822 29.0513L21.8276 30.4817L23.2669 29.4428L22.2215 28.0124Z" fill="currentColor"></path><path d="M47.5951 28.012L46.5498 29.4425L47.9891 30.4814L49.0345 29.051L47.5951 28.012Z" fill="currentColor"></path><path d="M26.5748 39.5587H24.7959V41.3266H26.5748V39.5587Z" fill="currentColor"></path><path d="M33.0711 42.8498L31.6318 43.8887L32.6772 45.3192L34.1165 44.2803L33.0711 42.8498Z" fill="currentColor"></path><path d="M40.9667 39.5605L40.7363 41.0062L42.191 41.2352L42.4214 39.7895L40.9667 39.5605Z" fill="currentColor"></path><path d="M26.3482 23.8185L24.8936 24.0475L25.124 25.4932L26.5786 25.2642L26.3482 23.8185Z" fill="currentColor"></path><path d="M44.7027 37.0673L43.248 37.2963L43.4784 38.742L44.9331 38.513L44.7027 37.0673Z" fill="currentColor"></path><path d="M38.7401 19.5619L37.4277 20.2263L38.0962 21.5306L39.4086 20.8663L38.7401 19.5619Z" fill="currentColor"></path><path d="M30.0441 21.7839L29.668 22.935L30.8262 23.3088L31.2023 22.1577L30.0441 21.7839Z" fill="currentColor"></path><path d="M38.9962 39.2551L38.6201 40.4062L39.7784 40.7801L40.1545 39.6289L38.9962 39.2551Z" fill="currentColor"></path><path d="M25.7296 34.9689L25.3535 36.12L26.5118 36.4938L26.8879 35.3427L25.7296 34.9689Z" fill="currentColor"></path><path d="M42.4951 23.7363H41.2773V24.9466H42.4951V23.7363Z" fill="currentColor"></path><path d="M34.9096 22.0408L34.1973 22.7487L34.9096 23.4567L35.6219 22.7487L34.9096 22.0408Z" fill="currentColor"></path><path d="M28.3896 25.6912L27.3945 25.8475L27.5518 26.8364L28.5468 26.6801L28.3896 25.6912Z" fill="currentColor"></path><path d="M26.3315 30.5683L25.6191 31.2762L26.3315 31.9842L27.0438 31.2762L26.3315 30.5683Z" fill="currentColor"></path><path d="M42.8493 27.9681L42.3916 28.86L43.289 29.3148L43.7467 28.4229L42.8493 27.9681Z" fill="currentColor"></path><path d="M41.4287 25.6924L41.2715 26.6813L42.2665 26.8375L42.4238 25.8486L41.4287 25.6924Z" fill="currentColor"></path><path d="M30.287 37.5962L29.292 37.7525L29.4492 38.7414L30.4443 38.5851L30.287 37.5962Z" fill="currentColor"></path><path d="M37.7773 22.4902L36.8799 22.945L37.3375 23.8369L38.235 23.3821L37.7773 22.4902Z" fill="currentColor"></path></g><defs><clipPath id="clip0_7897_1034"><rect width="95" height="64" fill="currentColor"></rect></clipPath></defs></svg>